<svg xmlns="http://www.w3.org/2000/svg" version="1.0" width="500" height="500"><path d="M72.430324 426.80336 0 353.60672V146.13561l73.062534-73.067803L146.12504 0h206.46684l73.70406 72.937657L500 145.87532v207.99964l-73.06781 73.06251L353.86439 500H144.86062zm341.393746-13.74593 66.82766-67.5943V154.53303l-67.33491-68.101543-67.33491-68.101547H154.28265L86.306294 86.300607 18.32994 154.27128v191.44603l67.461494 67.46721 67.461476 67.46721H346.99642zm-321.922756-4.96464L26.47658 342.66215V157.07294l66.064914-65.298183L158.60641 26.47658h182.78718l66.06492 65.298177 66.06491 65.298183v185.58921l-65.42473 65.43064-65.42475 65.43063H157.32606zm311.099726-5.08566 63.39407-63.38799V160.39302l-63.38798-63.394063-63.38799-63.394067H159.36247L96.491884 96.486757 33.62129 159.36864l-.02993 90.60658-.02991 90.60658 62.900514 62.90666 62.900506 62.90665h180.24451z" style="fill:#000"/><path d="M227.98023 409.6282c-1.69035-.3773-1.5797-.5973.72765-1.4465 1.85512-.6827 2.07278-.9887 2.63003-3.6977.46396-2.2555 1.22971-2.9932 3.10683-2.9932 3.01525 0 3.64147 3.5667 1.09493 6.236-.95741 1.0036-4.06267 2.3317-5.31063 2.2712-.41587-.02-1.42783-.1865-2.24881-.3698zm-89.76978-5.2816c1.4131-1.8507 1.47312-2.4775.46871-4.8944-.73038-1.7574-.7323-1.808-.11271-2.9585 1.43927-2.6726 4.88618-1.8201 5.48197 1.3557.52449 2.7958-1.87823 6.5242-4.85905 7.5399-2.2764.7756-2.32652.7222-.97892-1.0427zm117.7571-.2071c.96308-2.1216.84863-3.2-.55606-5.2396-1.42239-2.0652-1.39122-3.4034.10662-4.5816 1.30097-1.0234 2.40817-.8709 3.71146.511 2.74602 2.9116 1.25705 8.085-2.95373 10.2626l-.96766.5003.65937-1.4527zm-18.25747-.7016c-.1207-.6434-.51207-1.4346-.86971-1.7583-.82587-.7473-3.11935-1.0665-4.05724-.5646-.88581.4741-1.43059-.3258-1.43059-2.1006 0-.8862.23806-1.3303 1.02524-1.9123 1.11502-.8243 1.27927-1.7359.68569-3.8056-.2353-.8206-.21647-1.7799.0614-3.1252.51665-2.5013-.0116-3.4512-2.23029-4.0098-1.32229-.333-1.74141-.6839-3.1135-2.6067-1.96245-2.7503-2.4546-2.8969-6.48611-1.9325-3.08763.7386-5.46226.9122-6.96674.5093-.7066-.1893-.76764-.3518-.57042-1.5192.34414-2.037-1.20271-4.0694-3.09713-4.0694-.80338 0-.56415-1.3762.62373-3.5884.99565-1.8541 1.24837-2.0894 2.63895-2.457 1.42697-.3774 3.10495-.353 6.74953.098 1.44884.1792 1.45243.1832 1.45308 1.6111 0 1.3322.11787 1.5114 1.6896 2.5826 4.07296 2.776 11.73862 2.7833 13.71119.013.67505-.948.82693-.9935 3.33256-.9983 2.75644-.01 6.27358-.6802 7.88352-1.5128.52387-.2709 1.8179-1.3858 2.87561-2.4778l1.92308-1.9851 2.36268.019c2.47525.02 3.72687.5259 4.91653 1.9891.84484 1.0391.74771 1.8127-.25932 2.0654-.95679.2402-2.20749 2.0184-2.2095 3.1414 0 .3967.37831 1.2806.84227 1.9642l.84354 1.2431-.77334.5067c-1.42188.9316-2.85692 1.285-3.60104.8868-.97204-.5202-3.62465-.4549-7.77403.1913-4.661.726-4.58606 1.1139.57677 2.9862 2.17595.7891 4.71343 1.9148 5.63885 2.5014.92542.5866 2.54968 1.2423 3.60945 1.457 1.99328.4038 2.77205.9786 3.19271 2.3565.31557 1.0338-.0618 3.4611-.66272 4.2625-.44215.5895-.52526.5921-1.57747.048-2.29177-1.1852-4.91431.5693-4.91431 3.2876 0 1.1733-.10154 1.308-1.24356 1.6502-.68394.2049-1.48882.3725-1.78864.3725-.81326 0-1.9021-1.3069-2.84335-3.4129-.60865-1.3619-1.73198-2.7505-4.10402-5.0729-3.72772-3.6498-4.77894-3.8481-2.72763-.5145 3.15909 5.134 3.29422 7.8599.58665 11.8331-.98773 1.4493-2.00046 2.6352-2.25052 2.6352-.25006 0-.67905.086-.95334.1915-.35668.1369-.56119-.1418-.71812-.9784zm-128.03831-.15-1.86128-.9369 1.87961-.2201c2.70857-.3172 3.00023-.51 4.1162-2.7207 1.45412-2.8806 3.3915-3.5715 5.23198-1.8658 1.08791 1.0082 1.13259 1.8174.20118 3.6431-1.47136 2.8841-6.02484 3.8839-9.56769 2.1004zm10.73594-3.8457c.0521-1.9882-1.25364-3.2203-3.4542-3.2591-1.56448-.028-1.62847-.068-1.73047-1.1039-.1349-1.3695.37664-2.3207 1.55109-2.8838 1.19142-.5713 1.79007-1.7774 1.7964-3.6193.003-.8063.32151-2.0864.70831-2.8446 1.06579-2.0891.79557-3.2852-1.03217-4.5688-1.19758-.841-1.69325-1.5052-2.30863-3.0939-1.25581-3.2422-1.44289-3.3456-6.50211-3.5967-5.15768-.256-7.67885-1.1933-6.64968-2.4723 1.19814-1.4889.3176-4.4371-1.45838-4.8829-.47574-.1194-.8644-.3157-.8637-.4363.003-.4667 1.32952-2.328 2.53161-3.5513 1.61665-1.64536 3.0784-1.69092 7.26571-.2265 1.65934.5803 3.51678 1.2212 4.12765 1.4243.77801.2587 1.11126.5824 1.11259 1.0809.008 2.7988 2.41598 5.8328 6.11117 7.6981 3.34373 1.6879 4.69024 1.7248 7.75068.2122 2.418-1.195 2.69607-1.2558 4.74407-1.0364 3.3453.3582 5.35058-.053 7.71406-1.5801 1.66454-1.076 2.38222-1.3356 3.6911-1.3356 2.86254 0 5.50118 1.822 6.06311 4.1865.19144.8055.1172.9398-.51967.9398-2.61172 0-4.39115 3.2631-2.92269 5.3596.48015.6855.44782.7487-.56362 1.1013-1.49371.5207-2.9042.4667-3.84106-.1472-1.73757-1.1385-11.14163-2.3569-11.14163-1.4435 0 .261 1.34564 1.3822 2.9903 2.4917 1.64467 1.1093 3.85329 2.8318 4.90807 3.8277 1.05476.996 2.73961 2.2306 3.7441 2.7437 1.3093.6688 1.91507 1.2104 2.13975 1.9131.39946 1.2495-.1752 3.2496-1.3269 4.6184l-.85467 1.0157-.82944-.8295c-1.82981-1.8298-5.31644-.5071-5.86268 2.2242-.18312.9155-.35188 1.0474-1.34064 1.0474-2.54928 0-3.23526-.7787-3.91392-4.4427-.52138-2.8151-4.8869-9.9181-5.63549-9.1695-.0783.078.15931 1.1115.52799 2.2961.89742 2.8834 1.20684 6.44.69517 7.9903-.57568 1.7444-5.05192 5.718-6.44121 5.718-.96296 0-1.0139-.071-.97997-1.3651zm85.84939-12.7313c-.8026-1.701-.89518-2.2176-.69068-3.8544.53569-4.2876 4.9533-7.2872 6.96514-4.7296 1.4631 1.8601.67342 3.7809-2.03313 4.9452-2.12157.9127-2.38981 1.2501-2.89901 3.647l-.4155 1.9561-.92682-1.9643zm-52.31472-1.4942c-.46394-2.7625-.62363-2.9903-2.84666-4.0611-2.44394-1.1772-2.77558-1.5712-2.78281-3.3063-.0103-2.4765 2.81476-3.4195 5.11298-1.7067 2.12245 1.5818 3.02337 5.0687 2.05141 7.9399-.82752 2.4444-1.26108 2.7648-1.53492 1.1342zm112.58294-3.8456c-.64792-2.1626-1.60413-2.9984-3.7646-3.2903-2.354-.318-2.85151-.5921-3.37664-1.8599-.90092-2.175.24681-3.7789 2.70415-3.7789 3.41782 0 6.21261 3.846 5.66868 7.8009-.33983 2.471-.72389 2.8228-1.23159 1.1282zm-172.163822-4.6572c-.58607-2.0648-.46958-3.578.42307-5.495 1.74039-3.7377 5.840362-5.0347 7.570072-2.3948 1.27316 1.9432-.27731 4.0445-3.277892 4.4426-2.04328.271-3.10188 1.205-3.84429 3.3917l-.48295 1.4224-.38801-1.3669zm132.719182-1.3107c-.75185-.2465-1.94178-.8214-2.64431-1.2775-1.1738-.7621-1.27766-.959-1.28156-2.4295l-.004-1.6002-4.01554-2.476c-6.98452-4.3065-13.84884-9.05292-16.17403-11.18356-1.23594-1.1325-3.06603-3.2437-4.06695-4.69155-1.80443-2.61023-1.81482-2.64003-1.23285-3.52706 1.74876-2.66551 3.04494-6.07772 3.19586-8.41313.14637-2.26516.0819-2.53251-1.2141-5.03206-1.44659-2.79004-2.17386-3.80635-6.05891-8.46712-1.33176-1.59768-3.16685-3.90451-4.07795-5.12627-.9111-1.22176-3.01617-3.60659-4.67789-5.29964l-3.02136-3.07824 2.25731-2.38977c3.56875-3.7782 11.80573-14.64266 13.98834-18.45044.29715-.5184.56734.0998 1.50455 3.4425.6283 2.24091 1.63386 5.1509 2.23459 6.46664 1.60755 3.52094 8.05555 12.30021 13.05557 17.77574 7.22815 7.91561 7.93198 9.04323 8.21417 13.16029.2952 4.30709-1.40193 10.10651-4.44824 15.20041l-1.22626 2.05051 2.05552 3.92634c4.0722 7.77862 5.02681 8.83441 12.59363 13.92861 4.22876 2.8469 5.7383 4.519 5.182 5.74-.69621 1.528-1.95046 2.0093-5.49367 2.108-2.02647.057-3.79826-.08-4.64368-.357zm-104.57887-2.9084c-1.12989-.5345-2.87462-1.7262-3.87718-2.6484-1.59581-1.4676-1.84542-1.8771-2.00432-3.288-.15647-1.3893-.0365-1.8376.87005-3.2503l1.05154-1.63868-1.22731-3.24295c-1.55981-4.12156-1.82477-7.86702-.96612-13.65721.56097-3.7828 1.71136-9.54132 1.94344-9.72829 1.0057-.81023 1.51134-.76823 2.63567.21896 1.054.92544 1.33911 1.01178 2.71715.8229 1.74503-.23918 4.21156-1.56084 4.99179-2.67478.28792-.41108.85577-1.7544 1.26187-2.98516.60317-1.82803 1.08162-2.55675 2.61317-3.98013 1.71102-1.59018 1.88958-1.89606 2.04381-3.50118.22254-2.31608-.21551-2.84143-2.26285-2.71384-2.32673.145-2.55743-.53102-2.10265-6.16155.42869-5.30753.88705-6.95843 2.86425-10.31626 2.69404-4.57519 5.94283-7.24993 9.76813-8.04211l1.17867-.2441-.96534.83036c-.73905.63571-1.13688 1.50441-1.69712 3.70584l-.73179 2.87548-2.81139 2.35535c-2.97206 2.48994-3.23521 2.95308-3.68005 6.47684-.15742 1.24693-.60681 2.16421-1.89246 3.86279-.9273 1.22515-1.68601 2.28171-1.68601 2.34789 0 .18677 3.53611-.78169 4.83357-1.3238 1.91498-.80014 2.43331-1.63276 2.49445-4.00705.0601-2.33505.009-2.27021 3.26618-4.15904 1.59767-.92654 2.04567-1.42328 2.98656-3.31144 1.33872-2.68651 4.07437-5.46803 5.37784-5.46803 1.04487 0 2.58733.73332 3.26827 1.55381.41955.50553.34925.68063-.59214 1.47498-.58751.49574-1.58187 1.21124-2.20969 1.58997-.76554.46183-1.59172 1.53111-2.50849 3.24664l-1.367 2.55802-1.87961.0886c-3.56629.16809-4.0937.57515-4.94971 3.82017-.52343 1.98425-.41104 2.0827.9209.80661.91681-.87836 1.03472-.90311 2.41094-.50611 6.44157 1.85819 7.9203 1.4487 9.64689-2.67137.85468-2.03948 1.09677-2.32663 2.61414-3.10075 1.77895-.90756 2.83585-.83818 3.68547.24194 1.11677 1.41976.91742 2.10995-.82517 2.85692-1.65824.7108-4.6773 2.84165-5.87483 4.14642-.40932.44598-1.08065 1.71301-1.49184 2.81564l-.74764 2.00478-1.41302-.27131c-5.97757-1.14776-8.99405.77042-8.65623 5.50448.19597 2.74622.89677 4.00759 2.70072 4.86098 1.69513.80193 1.84635.76578 1.27358-.30445-.50256-.93904-.49918-2.12271.0115-4.01913.35075-1.3026.4664-1.40722 1.55552-1.40722.64714 0 2.22134.17915 3.49823.39812 1.27689.21896 2.73303.29485 3.23588.16865 1.24698-.31298 4.86075-3.72223 6.25369-5.89976 1.43605-2.24493 2.38986-2.61713 3.47471-1.3559.92465 1.07497.95926 1.55766.25639 3.57605-.65793 1.88933-1.95049 3.46559-4.27273 5.21049-1.00028.75161-3.01706 2.58441-4.48174 4.07292-2.52596 2.56705-2.97555 2.85907-8.73393 5.67294-5.12179 2.5028-6.36647 3.26482-7.96161 4.87426-3.49304 3.52435-6.68759 9.13096-9.60046 16.84935-.91715 2.4302-1.66754 4.57415-1.66754 4.76435 0 .1902 1.47524 1.9773 3.27832 3.9713 3.69726 4.0889 3.68072 3.8006.31004 5.4056-2.23748 1.0654-3.65586 1.0304-6.15534-.1521zm158.746-31.91127-1.53787-.3441 1.43052-.56148c2.55273-1.00192 3.18606-1.70484 3.42548-3.80176.38174-3.34344 3.08876-4.90353 5.07025-2.92205 1.00707 1.0071 1.06212 2.22478.18766 4.15036-.6969 1.53447-1.81845 2.45474-4.05478 3.32709-1.62143.63246-2.27546.65444-4.52126.15194zm-127.03557-2.07415c-.71303-1.56494-.84746-3.21875-.42661-5.24845.44742-2.15791.55093-2.28216 5.72682-6.87483 2.11963-1.8808 2.50197-2.40915 3.14781-4.3499.80023-2.40472.72141-3.08832-.5272-4.57223-.6426-.76369-1.02999-.94087-1.77057-.80978-1.07492.19026-2.66752 1.53896-3.3429 2.83094-.55443 1.06061-3.96994 4.42312-5.08776 5.00882-.65974.34566-1.38699.32203-3.88119-.12614-4.13523-.74304-4.7082-.56575-5.36959 1.66143-.28866.97204-.52484 2.13672-.52484 2.58818 0 1.013-.68283.86098-1.29522-.28838-.27396-.51416-.39902-1.70203-.33037-3.13782.0932-1.94985.24909-2.44905.99868-3.19864 1.09113-1.09114 3.38671-1.42805 5.56831-.81723 2.42863.67998 3.10512.3295 3.97639-2.06004.92333-2.53234 3.36007-4.90887 6.6055-6.44228 2.37589-1.12255 2.81878-1.78194 2.23254-3.32387-.90678-2.38505-2.47196-2.94273-5.09363-1.81491-1.85862.79956-2.57825 1.61556-3.5946 4.07597-.34939.84582-.93482 1.807-1.30094 2.13594-.90569.81371-3.16729.76912-6.09507-.12018-1.30054-.39502-2.59316-.63053-2.87248-.52334-.65312.25062-.64481-.11956.0242-1.07463.4533-.64718.84811-.75955 2.66867-.75955 2.63889 0 3.03935-.2828 4.60991-3.25546 1.01714-1.92519 1.62205-2.61277 3.29625-3.74676 1.83836-1.24519 2.05049-1.51025 2.05049-2.56229 0-.95583-.21805-1.32037-1.17582-1.96582-1.46948-.99029-2.48982-1.25418-3.6941-.95541-1.30386.3235-4.41844 3.62928-5.2523 5.57475-.86512 2.01841-1.48045 2.70312-3.20597 3.56744-2.58654 1.29561-3.24661 2.19413-3.24661 4.41943 0 1.5373-.15197 2.11484-.68781 2.61405-.61576.57368-3.06663 1.55506-3.3002 1.32148-.051-.051.28978-.63019.75721-1.28715.55398-.77861 1.0133-2.14058 1.31923-3.91182.45106-2.61153.53274-2.77054 2.09784-4.08433 4.11335-3.45285 4.21214-3.58239 4.91732-6.44757.78165-3.17589 1.32777-3.84127 4.53697-5.52766 2.23261-1.17322 2.54687-1.24548 4.89942-1.12668 2.2549.11386 2.9117.32792 6.37728 2.07848 4.38327 2.21409 6.17211 3.74957 7.34881 6.308.71534 1.55534.77111 1.95083.44558 3.15978-.45294 1.68212-.1836 2.28205 1.69124 3.76695 2.1804 1.72693 2.5573 4.85108 1.135 9.40825-1.29351 4.14456-2.96066 6.33989-8.31602 10.9507-3.88988 3.34906-4.80176 4.66483-5.28826 7.63055-.33236 2.02607-.38451 2.11714-.75135 1.31201zm-32.63125-3.74551c-.29849-.23495-1.18118-1.5691-1.96154-2.96479-1.64109-2.93507-1.93208-3.1997-4.46137-4.05702-1.48864-.5046-2.18174-1.00728-3.33205-2.41664-.79884-.97873-1.45243-2.11772-1.45243-2.53109 0-.57892.27512-.34304 1.19765 1.02685 1.51354 2.2475 2.08459 2.54638 4.35532 2.27949 1.60472-.1886 1.98075-.10595 3.16059.69472 1.04742.71081 1.66971.88673 2.85645.80753 1.99927-.13344 2.53006-.89713 1.54637-2.2249-1.3147-1.77453-2.7618-2.48951-5.05039-2.49525-2.28639-.006-2.64708-.14574-3.23035-1.25386-.58872-1.1185-.50277-1.1745.8284-.53969 1.20497.57461 1.24569.56922 3.04287-.40295l1.82156-.98536 1.7424 1.2518c2.04085 1.46622 2.21481 1.49556 2.91756.49225.79842-1.13991.67042-1.55915-.95979-3.14355-2.09411-2.03525-3.45987-5.71661-2.60919-7.03295.28184-.43612.33206-.42167.33651.0968.008.89708 1.52342 3.72153 2.44908 4.56371.44153.40172 1.45429 1.05738 2.2506 1.45705.97503.48937 1.6729 1.16784 2.13705 2.07764.84222 1.65093 1.59407 2.089 3.15147 1.83627 1.43992-.23367 1.75334.2818 1.2593 2.07111-.21189.76741-.84908 1.62965-1.72355 2.33231-1.52595 1.22615-2.16082 2.26031-2.88533 4.7-.26426.88987-.81473 2.04289-1.22326 2.56226-1.39746 1.7766-4.89514 2.79701-6.16393 1.79826zm169.57752-.13439c0-2.19095-2.62418-3.68111-4.84695-2.75239-1.19243.49824-1.23607.48943-1.60687-.3244-.66818-1.46651-.45944-2.63401.6441-3.60235 1.13689-.9976 1.19485-1.39929.55322-3.83439-.26728-1.01451-.34469-2.20812-.19596-3.02159.46092-2.52046-.0628-3.43303-2.29234-3.99444-1.04367-.2628-1.87357-.75855-2.46733-1.47389-3.12484-3.76468-3.35764-3.83769-7.90054-2.47793-2.72318.81509-5.18237 1.05924-6.66409.66162-.5849-.15696-.66696-.41944-.56877-1.81995.10392-1.48292.0133-1.72191-.96606-2.54593-.5944-.50017-1.45338-.90939-1.90887-.90939-1.04161 0-1.07141-.69115-.13748-3.18733 1.22079-3.2629 2.56215-3.77695 8.9628-3.43477l4.23357.22633.96045 1.83443c2.03204 3.88116 4.96482 5.66184 9.27065 5.6288 3.82967-.0294 5.80289-1.37441 6.45433-4.39954.21803-1.0124.35227-1.11069 1.51702-1.11069 3.20252 0 7.0638-1.76973 8.63506-3.95771 1.4283-1.98889 2.48813-2.53557 4.91567-2.53557 2.1239 0 4.00154.71867 4.77949 1.82936.69891.99785.63627 1.92991-.12973 1.92991-1.8928 0-2.70299 3.90939-1.15227 5.56007.86035.91579.75779 1.10274-1.12206 2.04539-.75321.37771-1.71223.46881-3.6145.34334-3.26975-.21568-9.97899 1.06496-9.81495 1.87344.0619.30536 1.62717.9939 4.03137 1.77339 2.16156.7008 4.92972 1.7617 6.15147 2.35755 1.22175.59583 2.63426 1.08347 3.13892 1.08362 1.64398.00034 2.67989.62208 3.22973 1.93798.5724 1.36999.41335 3.68826-.32206 4.69401-.38772.53019-.50039.53169-1.52564.0202-2.25154-1.12323-4.58185.54645-4.71934 3.38142-.0659 1.35822-.12682 1.42936-1.62234 1.8938-2.03252.63121-2.92629.0824-4.30118-2.64132-.61696-1.22219-1.84548-2.77034-3.21503-4.05152-4.77939-4.47091-6.37706-5.02036-3.84539-1.32246 1.74305 2.54601 2.93025 5.50215 2.92899 7.29331 0 .85094-.40781 1.94366-1.23669 3.31829-.6797 1.12725-1.35592 2.36546-1.50273 2.75159-.33693.88623-2.72767 1.72735-2.72767.95968zm18.16724-1.2081c.80534-2.11946.66761-2.83656-.90665-4.72085-1.5201-1.81944-1.57693-3.09429-.19945-4.4718 1.09602-1.09603 1.60352-1.19993 2.92345-.59854 3.3801 1.54009 3.13849 7.66006-.40938 10.36907-.85847.65549-1.67774 1.1918-1.82059 1.1918-.14289 0 .0428-.79635.41262-1.76968zm-50.16063-13.63696c-1.72163-2.91282-1.76483-6.22141-.11152-8.54325 2.14861-3.01745 6.13203-2.57158 6.13203.68638 0 1.56603-.4657 2.12162-2.74762 3.27796-2.02408 1.02569-2.10411 1.15263-2.35072 3.7274l-.19876 2.07547-.72341-1.22396zm-89.50843-1.25691c.4649-1.19569.6189-6.44525.22416-7.64133-.22467-.68075-1.04419-1.73295-1.9198-2.46487l-1.5278-1.27709.20577-1.96867c.41358-3.95701-2.11108-6.96691-8.51756-10.15466-3.47338-1.7283-4.25103-1.98376-6.47281-2.12634-2.06083-.13226-2.77298-.0371-3.87287.51729-.74125.37364-2.27044.83992-3.39821 1.03618-5.10941.88914-8.40279 3.14332-11.48951 7.86407-1.95968 2.99709-2.97997 5.59757-3.26459 8.3207-.11635 1.11314-.30849 2.08381-.42699 2.15705-.50405.31152-6.2602-4.00557-9.5315-7.1486-9.18827-8.82795-15.17549-19.01378-18.18521-30.93781-2.632232-10.42847-3.340442-19.13633-2.192412-26.95688 1.001932-6.82528 3.858302-20.40311 5.100672-24.2462 2.9971-9.27103 9.84371-20.34136 18.74384-30.307 7.23193-8.09775 11.87862-12.32998 21.07483-19.19509 3.28933-2.45554 7.82604-6.14984 10.08158-8.20957 4.07692-3.72299 14.44647-14.44131 17.13037-17.70653 5.51283-6.7069 10.39446-17.02347 13.4639-28.45396.61877-2.3043 1.16656-4.1481 1.21731-4.09735.27289.27289-.60664 14.21124-1.06113 16.81669-.83571 4.79059-6.83796 19.10778-11.18127 26.67066-7.44508 12.96389-18.95256 27.32814-27.13095 33.86626-5.8737 4.69567-10.10314 10.89375-14.86828 21.78887-5.67385 12.97285-7.53462 21.31998-7.59154 34.05462-.0348 7.79726.28626 10.00192 2.32703 15.97605 4.14534 12.13507 9.7586 20.19816 16.31235 23.43168 6.06211 2.99094 12.17943 3.07651 17.87543.25003 3.29684-1.63596 5.55625-3.52824 7.32799-6.13726 2.81477-4.14496 2.89402-4.99398 1.33338-14.28464-2.31512-13.78226-1.29155-20.17965 5.66204-35.38821 7.42279-16.23477 21.27603-29.18097 35.57185-33.24277 4.61415-1.31099 8.06714-1.64482 14.74668-1.42564 16.53222.54247 24.92173 4.09424 38.19107 16.16849 8.10566 7.37566 12.3838 10.57762 15.27739 11.43436 1.83607.54362 5.16149.41996 7.19841-.26769 4.55633-1.53824 10.52698-5.9891 12.09079-9.01316 1.27544-2.46645-.19254-7.4785-3.18667-10.88002-3.76278-4.27479-9.51837-7.84721-25.02552-15.53294-15.85412-7.85773-21.55745-11.56683-28.70177-18.66586-7.63859-7.59013-11.97213-15.1554-14.83558-25.89917-1.87213-7.02426-1.86809-12.65181.0133-18.62121 2.89536-9.18641 8.54853-15.16818 19.43195-20.56154 5.29051-2.62176 13.38168-5.60619 13.81525-5.09577.13527.15925 1.2683 1.8465 2.51783 3.74945 2.55697 3.89406 7.38129 8.73283 10.68231 10.71426 1.08819.65319 3.57992 1.8224 5.53718 2.59823l3.55866 1.41062-1.61398.22121c-2.93374.40212-3.406.27887-6.32009-1.64943-4.51043-2.98461-7.41331-4.06179-10.93058-4.05603-2.36558.004-3.26831.16439-4.77857.84972l-1.86205.84493 3.32398 1.14577c5.08854 1.75401 6.50583 2.69747 8.3914 5.58588.88502 1.35576 2.13329 3.69324 2.77394 5.1944.64064 1.50117 1.53861 3.23932 1.9955 3.86254.45692.62323.765 1.19885.68469 1.27917-.0803.0803-2.05664.44145-4.39181.80249-5.68198.87851-6.79433 1.30453-7.73195 2.96134-1.39379 2.46282-1.35415 3.53623.24401 6.6081 3.2437 6.23487 9.19627 10.60778 25.63383 18.83131 11.05071 5.52857 14.18215 7.24959 19.02547 10.45638 13.64742 9.03599 21.68579 19.85171 24.35628 32.77162 2.15906 10.44555 1.64989 17.23513-1.84842 24.64801-3.50596 7.42911-8.34556 12.8134-16.25106 18.08014-3.06822 2.04406-8.75525 5.2698-9.31264 5.28222-.81025.018-.0808-1.73302 1.27708-3.06566 1.74705-1.71462 2.2241-2.86776 2.2946-5.54643.0388-1.47493-.1446-2.21668-.84234-3.40735-.92436-1.57732-3.1038-3.35366-4.11469-3.35366-.45326 0-.58094-.31679-.58541-1.45245-.008-1.9164-1.55458-4.9693-3.01785-5.9554-1.43927-.96992-3.90492-1.3441-5.69752-.86465-.90888.2431-1.85908.26336-2.7426.0585-.74355-.1724-2.9511-.31713-4.90573-.32162l-3.55385-.008-1.13002-1.16357c-2.32857-2.39767-6.41312-3.68125-8.89769-2.79614-.64642.23028-.79594.0665-1.28576-1.4082-.79088-2.38111-1.42827-3.14059-3.41028-4.06348-2.39784-1.1165-3.83783-1.05782-5.79113.23602-2.13289 1.41276-2.22875 1.67685-.60865 1.67685 2.14416 0 4.69535.66121 5.35239 1.38723.42189.4662.67249 1.55174.84839 3.67502.18178 2.19485.50381 3.55075 1.18546 4.99166.97661 2.06443 1.03136 4.45692.12692 5.54673-1.23938 1.49339-4.64699-.6872-5.42689-3.47276-.86336-3.08364-4.61333-5.06175-9.29334-4.90221-1.71646.0585-2.80821-.0538-3.07016-.3157-.22358-.2236-.47326-1.32902-.5548-2.4565l-.14828-2.04998-.65192.82878c-2.21231 2.81251-1.98929 6.69152.51949 9.03511.81083.75746 1.037.79853 3.02276.54892 1.18051-.1484 2.68461-.28614 3.34248-.30609 1.28258-.0389 1.20606-.19482 1.33558 2.72121.0835 1.87892 5.47997 8.69118 6.88493 8.69118.7943 0 1.244.6227 1.52126 2.10651.36215 1.93825-.58914 2.25996-2.67346.90412-1.31809-.85741-2.23999-1.12722-5.14461-1.50564-4.44861-.57957-4.96093-.78121-6.47289-2.54762-1.17507-1.3728-1.33842-1.86833-1.68437-5.1089-.0871-.81624-.13312-.79362-1.0298.50652-.51624.74849-.93861 1.78656-.93861 2.30682 0 1.28049-.2179 1.20995-2.2106-.71565-2.97451-2.8743-7.1953-6.3246-9.22423-7.54032-5.39679-3.23375-15.44197-4.01488-19.96474-1.55249-6.83856 3.72322-11.36354 9.93896-13.05763 17.93661-.76814 3.62632-.86677 6.06104-.66435 16.39862.12337 6.30105-2.6342 19.69832-5.02952 24.43523-1.59596 3.15612-9.08465 13.26473-13.23946 17.8713-3.18308 3.52917-8.2154 7.16143-12.59839 9.09335-1.71695.7568-1.96763.79745-1.7691.28685zm148.65483-8.49232c-1.0909-2.13657-1.14582-2.16828-4.68438-2.70473-.70561-.10697-1.5743-.50727-1.93044-.88953-1.97582-2.12081-.15197-5.16041 2.76772-4.61266 3.7538.70423 6.2515 5.30572 5.10395 9.40304-.20687.73857-.32784.62343-1.25685-1.19612zm-34.5006-1.45735c-2.95486-.77126-4.64761-2.26612-6.37932-5.63363-.57136-1.11108-.64214-1.70213-.45021-3.75927.22114-2.37021.18136-2.5498-1.3725-6.20018-2.83098-6.65053-4.2654-8.55575-8.46313-11.24103-2.72872-1.74556-2.74612-1.78227-2.31544-4.88231.29506-2.12409 1.8223-9.79824 2.92936-14.71973.1177-.52318.42305-.76894.95549-.76894 2.28722 0 2.73625-1.98214 2.27014-10.02096-.18721-3.22876-.24408-6.56252-.12642-7.40836.5496-3.95013 4.44772-9.25757 7.14231-9.72448 1.9521-.33826 2.81853-1.01496 3.28256-2.56376.37633-1.25611.51689-1.37159 1.92698-1.58305 1.43736-.21555 5.1861.0152 6.81067.41917.64191.15962.71634.3542.54933 1.4358-.47872 3.10046-2.58345 5.44437-5.87684 6.54473-2.62689.87767-3.15783.77584-5.44334-1.04391-1.87551-1.49332-2.07581-1.39062-1.23122.63127 1.26068 3.01802 3.28103 4.0471 7.24097 3.68826 3.1973-.28972 5.86843-1.27313 7.04504-2.59368 1.018-1.14253 1.49611-1.24484 2.46165-.52673.65602.48793.65578.50769-.0202 1.78102-.98755 1.86044-3.23469 3.45097-5.21057 3.68809-4.28355.51406-5.67997 1.21428-7.34869 3.68494-1.09814 1.62585-1.20302 3.18986-.41973 6.25763.81838 3.20521.86243 3.21706 1.66909.449 1.34769-4.62458 2.56746-5.57865 6.99631-5.47215 2.28408.0549 2.66755-.0362 4.07416-.96788 1.84633-1.22299 1.78775-1.21658 2.92731-.3202 1.16902.91957 1.13686 1.46908-.26619 4.54793-.98266 2.1563-1.3824 2.67015-2.53433 3.25783-2.43828 1.24392-3.56113 4.0093-2.79031 6.87193.33559 1.24625.25962 1.51468-1.18502 4.18654-2.18353 4.03842-2.93124 6.41598-3.15963 10.0468-.37521 5.96419 1.42109 19.03779 3.38444 24.63245 1.06642 3.03885 1.0897 3.21568.60643 4.61366-.38324 1.10862-.80454 1.60128-1.77484 2.07548-1.4474.70736-4.38395 1.01458-5.90438.61772zm-137.72461-20.12676c-6.52051-2.31529-10.59247-6.47647-14.96834-15.29633-2.19627-4.42673-3.9613-9.06149-5.07252-13.31988-.73351-2.81091-.80102-3.75259-.784-10.93605.0322-13.60472 1.89348-21.66447 8.19264-35.47654 4.58929-10.06287 8.64119-15.78095 14.34097-20.23811 2.64354-2.06723 5.77461-5.14021 8.95706-8.79092 1.59757-1.83265 3.02239-3.33208 3.16626-3.33208.37289 0 1.15721 4.22734.80959 4.36358-5.18338 2.03143-5.76918 2.36274-6.51951 3.6872-.95725 1.68972-.97486 2.79886-.0599 3.77281l.71466.76072-2.67971.57588c-5.30722 1.14055-4.71622.67325-4.82874 3.81808l-.0985 2.754-1.57247.21553c-.86486.11854-2.12771.21789-2.80633.22077-2.09141.009-2.25771.28594-2.27091 3.78357l-.0118 3.1301-1.69694.84526c-2.39814 1.19455-2.55132 1.49022-2.55132 4.92456v2.98903l-2.3068 1.95092c-2.41622 2.04345-2.71319 2.47484-2.82404 4.10235-.14726 2.16198-.003 2.51855 1.39197 3.44174l1.38736.91811-3.26698 3.2793c-1.79683 1.80363-3.26233 3.43034-3.25666 3.61495.006.1846.84731.96962 1.87033 1.74449l1.86003 1.40885-2.4194 3.82338c-1.33067 2.10285-2.34431 3.89845-2.25255 3.99022.0918.0918 1.26654.25904 2.6106.37173 1.34406.11268 2.52084.32962 2.61507.4821.0942.15247-.7668 3.35741-1.91342 7.12208-1.14661 3.76468-1.991 6.99655-1.87642 7.18195.20805.33664 3.34189 1.38008 4.14491 1.38008.23343 0 1.1476-.55203 2.03148-1.22671l1.60706-1.22671-.23793 2.67915c-.1458 1.64176-.69939 4.00243-1.4297 6.09666-.65548 1.87964-1.27278 3.66766-1.37178 3.9734-.16219.50083.28546.5381 4.52164.37646l4.70165-.17941-.78498 1.27014c-1.40652 2.27581-2.1869 4.10842-2.19463 5.15371-.008 1.05879 2.07943 5.98065 2.53626 5.98065.14156 0 .56746-.52553.94643-1.16784.49396-.83721 1.39118-1.51375 3.16908-2.38963 1.36403-.67198 2.51348-1.18452 2.55433-1.13898.0409.0455.5281 1.0888 1.08277 2.31833 1.01762 2.25577 1.89878 3.16156 5.1385 5.28215.80266.5254 1.51139.8943 1.57496.81981.0636-.0745-.2234-1.63488-.6377-3.46753-.50175-2.21948-.62824-3.34786-.37883-3.37935.20594-.026 2.87398-.14135 5.92897-.25631l5.55455-.20904-4.29861-2.69033-4.2986-2.69032 1.64892-1.18199c1.64408-1.17852 5.36735-3.02535 6.84886-3.39719.42937-.10776.78066-.29491.78066-.4159 0-.12098-1.9214-1.3478-4.26978-2.72625-2.34839-1.37846-4.34981-2.63576-4.44761-2.794-.0978-.15824 1.55448-1.32328 3.67173-2.58898 2.11725-1.26569 3.92182-2.36155 4.01016-2.43523.27573-.22999-1.37731-3.07429-2.65262-4.56421-.66975-.78246-1.82126-1.67899-2.55892-1.99227l-1.34119-.56961 3.36693-3.0453c1.85181-1.67492 3.47835-3.13456 3.61452-3.24367.13618-.10911-.82127-1.42492-2.12766-2.92402-1.30639-1.4991-2.37754-2.80255-2.38033-2.89653-.003-.094 1.34041-.90656 2.9849-1.80574 1.6445-.89919 3.88705-2.14332 4.98345-2.76474l1.99346-1.12986-3.43335-2.87416-3.43335-2.87417 1.77876-.80284c1.66904-.75333 2.99658-1.05799 7.30769-1.67705l1.76969-.25412-1.14522-2.46665c-1.18332-2.54875-2.30782-3.59482-4.34541-4.04236-.52448-.1152-.95361-.39913-.95361-.63098 0-.55244 1.60751-2.0431 2.91134-2.69973 1.32161-.66557 6.73599-2.40474 10.19017-3.27322 1.47304-.37034 2.7386-.73377 2.81245-.8076.0738-.0738-1.71414-.95215-3.97327-1.95181-2.25914-.99966-4.05585-1.9726-3.99269-2.16208.18554-.55662 4.37842-2.96268 5.87979-3.37408.87337-.23932 3.02485-.30605 5.86037-.18175l4.48036.1964.21626-2.28962c.11893-1.2593.21734-3.40459.21867-4.76732 0-1.36273.0817-2.4777.17857-2.4777.0968 0 2.01682.92273 4.26659 2.05051 2.24976 1.12778 4.23426 2.0505 4.41002 2.0505.17573 0 .57797-.77808.89385-1.72908.66227-1.99403.52219-3.18591-.69898-5.94728-.97378-2.20187-1.03567-2.17073 2.67524-1.34606 2.7373.60831 4.31238 1.41841 7.60817 3.91299 1.22941.93056 2.29317 1.69192 2.36388 1.69192.0707 0 .30446-.84737.51945-1.88305.4183-2.01502 1.38477-3.4222 2.95469-4.30217l.9747-.54633 3.37514 3.53666 3.37515 3.53665-4.05864.006c-11.97039.0176-22.00419 4.05935-32.15185 12.95122-9.29088 8.14112-16.70486 20.2215-21.59259 35.18301-1.7536 5.36783-2.2423 12.68326-1.2702 19.01396.25976 1.69166.81017 5.27586 1.22314 7.96488.69293 4.51196.71015 4.99083.22327 6.20769-1.65393 4.1336-4.9942 7.57081-9.442 9.716-2.8423 1.37085-2.99319 1.40314-7.00585 1.49921-3.77332.0903-4.31942.0206-6.83497-.8726zm204.95681.61034c-3.58508-.85016-6.20041-4.67968-5.22154-7.64569.68237-2.06764 3.30792-2.41402 4.89972-.6464.4887.5427.5916 1.1599.51347 3.08004-.10912 2.6813.18397 3.23907 2.30113 4.37925.65332.35182 1.18782.7585 1.18782.90372 0 .32717-2.17889.28518-3.6806-.0709zm31.25672-8.9643.20184-2.29335-1.30169-1.12416c-2.39517-2.06857-2.55388-2.28804-2.55388-3.53196 0-2.48411 2.62688-3.70756 4.61046-2.14728 2.83477 2.22984 2.92167 6.86701.18553 9.90013l-1.34409 1.48997.20183-2.29335zm-39.18935-.98619c-2.40126-3.03781-2.23828-4.33137 1.17572-9.33175 1.19287-1.74713 2.49292-3.81188 2.88904-4.58834 1.19888-2.35003 2.03217-2.56409 6.02981-1.54898 3.8202.97007 4.35315.87252 6.7551-1.23642 2.9037-2.54952 2.99686-8.57538.172-11.12747l-1.36385-1.23218.4006-1.6699c.59567-2.48294.50162-4.42018-.29807-6.14121-.8796-1.89289-.89658-2.8536-.0817-4.61365.79142-1.7094 2.23107-3.04689 3.8281-3.55646 1.79223-.57184 2.31903-.24354 2.29593 1.43082-.0161 1.1691.16872 1.57445 1.09585 2.40285.98602.88102 1.30764.97802 2.77521.83701l1.65994-.15951v1.6467c0 1.32346-.19224 1.86705-.97925 2.76928-.5386.61742-1.29383 1.74318-1.67829 2.50169-.75718 1.49389-3.15219 8.18627-3.15219 8.80823 0 .20969.73049-.3153 1.62331-1.16667 2.74222-2.61488 5.6422-4.93618 7.43303-5.94979.9398-.53193 2.37426-1.70961 3.18769-2.61707 1.14882-1.28167 1.70936-1.64994 2.51144-1.64994 1.35818 0 3.20895.89984 4.04999 1.96908.88773 1.12854.85044 1.60017-.16291 2.0619-1.28439.58522-1.79203 2.84792-.95891 4.27443.49051.83987 1.86991 1.92113 2.72657 2.13723.23994.0605-.72977 2.7987-1.14294 3.22742-.35218.36544-1.5947.57526-4.32726.73072-4.34758.24736-10.49728 1.92995-10.49728 2.8721 0 .41463.40795.46506 2.3227.2871 2.92112-.2715 6.8743.37213 8.35065 1.35957.61433.4109 1.58725 1.62903 2.16207 2.70695.57479 1.07793 1.22838 2.14317 1.45243 2.36721.42739.42742.54267 1.91262.21472 2.76718-.15727.40983-.41245.43443-1.39108.13409-2.11136-.64801-4.22603 1.04788-4.22603 3.38914 0 .66016-.13967.81983-.59806.68365-.32893-.0977-1.02504-.27957-1.54689-.40409-1.00402-.23959-1.61428-1.04213-1.61428-2.12287 0-.94248-1.00283-1.71289-3.00271-2.3068-.96215-.28572-2.17956-.87733-2.70538-1.31468-1.09766-.91299-2.28507-1.58022-2.81218-1.58022-.19975 0-.9719.54989-1.71581 1.222-1.15542 1.04387-1.71456 1.27216-3.83534 1.56606-1.36553.18923-2.7696.49758-3.12017.6852-.66911.3581-1.92596 2.791-1.9388 3.75295-.0178 1.32148-1.4278 4.99823-2.33179 6.07982l-.98112 1.17387-.99586-.69106c-.54772-.38009-1.2535-.78376-1.56842-.89705-.86555-.31137-2.97861.38624-3.44838 1.13846-.63756 1.02095-1.14161.81517-2.63693-1.0766zm-23.75773-13.17051c-4.21732-.64797-5.1074-1.32065-5.96488-4.50802-.21875-.81302-1.54204-3.15999-2.94071-5.21548-1.39864-2.05549-2.54299-3.86859-2.54299-4.02911 0-.16051 1.19185-.98513 2.64855-1.83247 4.09535-2.38221 8.11878-5.51826 11.56077-9.01103l3.14098-3.18731.75759 3.32041c1.3256 5.81026 2.89242 8.31946 6.27125 10.04323 1.2739.64988 1.57973.67572 3.64013.3075 2.59774-.46424 3.49876-.31545 9.74393 1.60907 3.33086 1.02644 4.6378 1.26449 6.95951 1.26758l2.85848.004 1.15706-1.33851c.63637-.73618 1.15702-1.54357 1.15702-1.79419 0-.76422.83831-.5116 1.9682.59309 2.57193 2.51457 1.72204 8.55575-1.46658 10.4244l-1.611.94412-3.1191-.74613c-1.71551-.41039-3.34979-.74219-3.63173-.73734-.28194.005-2.03573.62104-3.8973 1.36932-5.18384 2.08371-7.6513 2.45051-17.2911 2.57042-4.60506.0573-8.8342.0332-9.39808-.0534zm-26.49866-3.41139c-.86172-2.61104.10389-5.1084 2.43502-6.29765 1.20077-.61261 1.56647-1.09864 2.72897-3.62682 1.59945-3.47849 1.62908-3.8867.38333-5.28094-1.19451-1.33692-2.33697-1.38528-4.16393-.17627-1.17257.776-1.71588.8971-4.02449.8971-3.70056 0-5.39491.85862-6.57295 3.33086-.46991.98614-.96972 1.79352-1.11069 1.79419-.14097.00068-.25631-.86491-.25631-1.92351 0-3.53473 1.88153-5.44244 5.90343-5.98561 3.75452-.50705 5.79319-1.69848 7.29695-4.26449 1.02904-1.75593.71914-2.93098-.92402-3.5038-.60538-.21103-1.15416-.38369-1.21953-.38369-.0654 0-.71381.53747-1.44092 1.19436-1.89677 1.71365-3.54628 2.29317-7.06923 2.48364-2.98623.16145-3.12673.13573-4.10098-.75077-.75698-.68882-.82246-.82751-.26233-.55559 3.82126 1.85504 11.04384-3.00186 11.04384-7.42654 0-.68889.24705-1.11334.82942-1.42502 1.15983-.62072 4.42148-.30328 5.59255.5443 1.281.92716 2.85749 4.13126 2.63997 5.36554-.23085 1.30983.34807 2.27884 1.36152 2.27884 1.19783 0 3.10612 1.83102 3.79891 3.64508.93199 2.44038.31205 4.79256-1.87162 7.10151-1.65737 1.75245-1.67925 1.80452-1.6921 4.03259-.0154 2.65624-.4267 3.59366-1.69763 3.86826-3.11066.67214-5.56202 1.59761-6.0403 2.28046-.29777.42514-.52848 1.46727-.52848 2.38724 0 1.9385-.47028 2.11818-1.0384.39673zm-27.1038-3.28383c-1.50202-.81479-2.33527-1.58003-3.35426-3.08059-1.79838-2.64828-3.40655-3.74702-7.39133-5.05003-4.91978-1.60872-6.63338-3.71213-6.51821-8.00097.0256-.95332.11651-1.36206.20198-.90828.19322 1.02535 1.45547 3.03205 2.53003 4.02216 1.16324 1.07182 2.18955 1.38193 5.96768 1.80323 2.75572.30728 3.63781.55557 4.93823 1.39004 2.57794 1.65428 4.0897 1.23498 4.08143-1.13202-.007-1.96258-.62793-3.04893-1.93682-3.38778-1.2494-.32346-3.53495-2.83004-5.39108-5.9125-.94193-1.56423-1.21078-2.37728-1.21078-3.66147 0-2.28195-.73951-2.61265-4.13024-1.84691-2.74626.62018-3.47541.41333-4.60154-1.30536-.68691-1.04835-1.07022-4.451-.53842-4.77966.24441-.15106.38474.0619.38474.58379 0 1.5768 1.05969 2.07904 3.88311 1.84038 2.1863-.18481 2.80952-.10042 4.68452.63439 2.59295 1.01618 3.93759 2.21571 4.22979 3.77336.6459 3.44299 5.39545 5.83026 7.08239 3.55984.96869-1.30376.93044-4.72365-.0715-6.39783-.56563-.94507-.84381-2.13579-1.04814-4.48665-.38925-4.4781-1.00727-5.23563-4.74846-5.82041l-1.53787-.24037 1.11629-.59291c2.21374-1.17583 5.63448.55182 6.67079 3.36911.88411 2.40352 1.66955 3.1351 2.80873 2.61606 1.44669-.65917 3.00916-.46651 5.23429.64539 4.5446 2.271 4.70584 5.39025.34185 6.61411-2.3216.65107-4.33289 2.71206-6.15021 6.30214l-1.13628 2.24469v8.72649c0 4.79956-.12443 8.91872-.27647 9.15367-.46461.71786-2.0155.46337-4.11421-.67511zm125.15836-5.49363-1.57827-1.64277-2.54305.23044-2.54309.23046-.91947-1.09272c-1.86267-2.21368-.60438-4.45778 2.49948-4.45778 2.11026 0 3.24726.54818 4.87579 2.35076 1.28986 1.42776 2.07226 3.53993 1.89213 5.10811-.10465.91095-.11442.90672-1.68352-.7265zm-24.14549-15.84664c-.73141-.29428-1.47573-2.0939-1.2455-3.01128.2963-1.18063 2.25021-2.80869 3.90588-3.25452 2.52928-.68106 5.79704.30359 7.58897 2.28673.57301.63415.53193.64694-1.63643.50887l-2.2242-.14163-1.78106 1.92303c-1.53486 1.65723-1.94639 1.91893-2.97717 1.8933-.65787-.0164-1.3916-.10838-1.63049-.2045zm-87.73673-13.35743c-3.23988-1.17349-6.35406-3.50981-14.18256-10.64012-12.5937-11.47052-20.93141-15.51029-34.40282-16.66877-3.63026-.31218-3.68894-.44043-1.30989-2.86327 1.12777-1.14852 2.43496-2.28727 2.90486-2.53055.85461-.44245 4.10098-1.04774 4.10098-.76463 0 .0825-.22914.69852-.50923 1.36884-.59499 1.42403-.43508 2.03272.73547 2.7997.87296.57199 5.00658 2.21653 5.57132 2.21653.17269 0 1.02655-.92607 1.89749-2.05794l1.58353-2.05792 1.38527.77636c1.96882 1.10341 3.05332 2.5752 4.21431 5.71918.55722 1.50901 1.13231 2.74431 1.278 2.74512.14565.00069 1.31597-.52787 2.60071-1.17485l2.33585-1.17633 1.12893 1.16478c1.0465 1.07972 1.14055 1.36529 1.28788 3.91034.0874 1.51005.27928 2.74556.42633 2.74556.14705 0 1.21177-.29393 2.36606-.65318l2.09864-.65319.77557 1.76388c.42657.97013 1.37164 3.20678 2.10021 4.97033l1.32462 3.20646 1.13911-2.50489c.62653-1.3777 1.21191-2.57771 1.3009-2.6667.25515-.25514 1.8136 1.33711 2.87045 2.93271.53033.80063 1.47851 2.91874 2.10705 4.70691.62858 1.78818 1.26064 3.25123 1.40455 3.25123.14395 0 .81993-1.11497 1.50219-2.4777.68224-1.36273 1.30405-2.54649 1.38176-2.63058.0777-.0841 1.40534 1.10315 2.95025 2.6383 2.05148 2.03852 2.93869 2.71041 3.29011 2.49161.41061-.25566.3981-.59561-.0854-2.31897-.31164-1.11067-.56662-3.23319-.56662-4.7167v-2.69731l1.50428 1.47635c2.09926 2.06029 3.59372 2.21008 6.97327.69896 1.36929-.61227 2.36726-1.21519 2.21771-1.33984-.14955-.12463-1.39922-.66857-2.77701-1.20876-1.99014-.78025-3.00876-1.46751-4.95535-3.34337l-2.45027-2.36123 1.42304-.49697c2.33161-.81427 2.2539-2.51039-.14552-3.17676-1.73642-.48224-2.92619-.42406-5.60098.27391l-2.27294.59313-.7337-3.77402c-.40353-2.07572-.80157-3.97458-.88458-4.21968-.1-.29535-.87081.13687-2.28551 1.28156-1.17404.94998-2.2241 1.72722-2.33346 1.72722-.10936 0-.46806-.85401-.79706-1.89781-.45661-1.44851-1.13457-2.46634-2.86358-4.29923l-2.26538-2.40141-1.09144 2.16328c-2.12701 4.21564-3.2028 4.36295-4.56726.62539-1.78027-4.87637-2.77042-6.1536-7.40972-9.55813l-1.41252-1.03654-1.23603 1.36818c-1.36648 1.51254-1.48357 2.16281-.71897 3.9928.28443.68069.46149 1.29324.39352 1.36121-.17873.17875-5.01834-3.04961-6.08924-4.06196-1.29837-1.22742-1.8642-2.48729-2.50044-5.56748-.30805-1.49131-.59016-2.74079-.62693-2.77664-.0368-.0358-1.03906-.26558-2.22731-.51052-2.43315-.50159-3.68562-.11579-4.32835 1.33322-.51676 1.16499-.78937.93273-1.41385-1.20451-.56378-1.92941-.40278-4.7119.38536-6.66127.16322-.40371.0483-.66901-.3573-.82464-.43607-.16734-1.04797.24235-2.26073 1.5137l-1.66282 1.74315-.62335-1.26026c-.86356-1.74602-2.00206-4.75321-2.41927-6.39023-.26615-1.04422-.22934-1.76939.15444-3.04464.27706-.92067.50377-2.18313.50377-2.80547v-1.13151l-1.267.85981c-1.08416.73575-1.51565.83046-2.9903.65636-1.62159-.19145-1.79893-.1329-3.00485.99209l-1.28156 1.19555.003-.92238c.005-1.71779.70762-5.27982 1.25305-6.35059.29838-.58579 1.29304-2.10316 2.21036-3.37191.91732-1.26875 1.55079-2.30134 1.40773-2.29465-.14305.007-1.12684.21943-2.1862.47274-2.45426.58687-3.26858.22998-5.99331-2.62663l-1.98084-2.07671 1.96564-.6552c2.39907-.7997 3.38782-1.97338 4.54576-5.39604.45415-1.34233.82574-2.56858.82574-2.72501 0-.15645-.83592-.38888-1.85758-.51653-1.577-.19702-2.13186-.10172-3.67335.63092-.99866.47464-1.86065.81808-1.91553.76319-.0549-.0549.19684-.61899.55944-1.25356.36259-.63457.91626-1.95153 1.23036-2.92659.63012-1.95585 2.26877-3.686 4.6339-4.89262 1.5349-.78304 1.53562-.79098.326-3.61634-.5223-1.21989-.78582-1.43692-2.08644-1.71836l-1.48866-.32213 1.50509-1.10209c1.91041-1.39888 3.82099-1.91352 6.10797-1.64524 2.26521.26572 2.8387-.48885 1.24239-1.63479-1.63742-1.17548-3.73927-3.22108-3.52735-3.43299.10878-.1088 2.15684-.73472 4.55123-1.39096 4.15378-1.13848 10.79628-3.95647 10.79628-4.58025 0-.55025-2.78146-3.1641-3.84112-3.60967l-1.05432-.4433.82443-.46891c.61764-.3513 2.58153-.47885 7.83024-.50854 4.74402-.0268 7.66679-.19665 9.05302-.52597l2.04721-.48631-2.73071-1.635544c-1.50184-.89954-3.42271-2.25402-4.26854-3.00995l-1.53787-1.37442 1.19612.20186c1.40702.23746 8.93966.87609 10.42583.88391.85153.004 1.18843.27146 1.96505 1.55722.51553.85349.93731 1.60216.93731 1.66372 0 .0616-.93813.375144-2.08473.696864-6.18486 1.73541-15.15248 6.15223-20.23349 9.96563-9.89348 7.42522-14.36809 19.53444-11.83728 32.03386 2.53543 12.52211 8.66179 23.1329 18.32411 31.73706 6.45956 5.75216 12.31566 9.39121 26.02742 16.17372 14.73975 7.29101 19.14161 9.90091 23.47727 13.91982 2.67144 2.4763 3.98652 4.59327 4.78177 7.69748.69539 2.71437.26103 3.80795-2.65132 6.67512-4.93932 4.86269-11.6138 7.30422-15.81146 5.78384zm98.94451-29.80459c-1.29608-1.82016-1.81315-4.30811-1.63609-7.87197.2083-4.19149.74628-5.29218 4.92784-10.08167 3.27023-3.74566 4.8936-6.40806 4.89695-8.03115 0-.46991-.47011-2.06753-1.04684-3.55025-1.19561-3.07383-1.22507-2.87252 1.22315-8.36122 1.56422-3.50686 1.48401-4.4848-.58244-7.10232-.80772-1.02309-1.96837-2.56349-2.57925-3.42312l-1.11068-1.56294-.004-4.66045c-.003-2.56325-.0991-5.23717-.21557-5.94202-.17252-1.04363-.10837-1.28157.34551-1.28157.71353 0 .70014-.27425-.0755-1.54609-1.19315-1.95658-1.49867-3.40154-1.04165-4.92688.22859-.76303.50972-1.38731.62471-1.38731.115 0 1.12873 1.807 2.25271 4.01557l2.04362 4.01559.003 5.29714c0 2.91343.14483 5.60471.31929 5.98064.17446.37593 1.32694 2.20546 2.56103 4.06562 2.80893 4.23392 2.89348 5.20223.88335 10.11706-1.61015 3.9369-1.67098 5.26202-.38009 8.28147l.98362 2.30083-.60934 1.62932c-.47564 1.27184-1.61018 2.62359-5.17099 6.16105-2.9076 2.88855-4.87033 5.14093-5.41296 6.21179-1.59887 3.15525-1.94212 9.2285-.66152 11.70493.64905 1.25514.37463 1.22856-.53726-.052zM164.90087 174.3032c.32926-.5123 1.0128-1.46969 1.51898-2.12757 1.68668-2.19214 5.86688-8.59962 7.9873-12.24305l2.09477-3.59937 2.94509-.71324c2.9876-.72354 4.30432-1.45032 9.67121-5.33797 2.14566-1.55429 2.15845-1.47051.18601 1.21767-1.96392 2.67654-10.5638 10.35091-17.99941 16.06236-.9788.75183-1.78618 1.4823-1.79418 1.62327-.0331.58163 2.66436.18871 5.58212-.81312 3.1317-1.07529 5.48964-2.46741 8.94168-5.27917 1.02606-.83575 1.86557-1.39554 1.86557-1.24399 0 .53436-6.28451 6.64864-8.001 7.78428-1.8293 1.21027-8.66408 4.15116-11.76879 5.06392l-1.82799.53742.59864-.93144zm-22.166-2.64854c-3.0523-3.67575-6.55681-10.75015-6.32105-12.76002.0904-.77077.2759-.58714 1.46242 1.44777 1.47521 2.52999 4.80141 5.88608 6.75019 6.81084 1.20093.56988 2.656.77581 2.656.37589 0-.11204-1.54391-1.83294-3.43091-3.8242-4.76178-5.0249-5.81086-7.16252-6.01512-12.2565l-.14869-3.70803 1.66871 3.31587c1.94696 3.8688 2.84886 5.11941 5.53938 7.6811 3.67289 3.49702 6.88503 5.57797 8.61016 5.57797.48703 0-.168-.82338-2.3789-2.99032-5.94058-5.82247-9.2171-10.79856-10.19336-15.4808-.28257-1.35521-.46703-2.60418-.40992-2.77553.0571-.17134.66277.66029 1.34592 1.84806 2.14622 3.73163 5.62616 7.09665 11.54728 11.16598 2.32649 1.59889 4.95838 2.72152 5.38355 2.29635.0943-.0943-1.11309-1.5314-2.68304-3.19362-5.39739-5.71459-7.91861-8.91216-10.75166-13.63592-.68028-1.13429-1.89114-5.49317-2.36244-8.50444-.20186-1.28969-.13371-1.22288 1.20496 1.18133 1.92467 3.45667 3.92759 5.90121 10.4328 12.7331 5.65668 5.94075 7.4493 7.46888 8.05319 6.86499.21532-.21532-.65969-1.5858-2.48478-3.89174-4.09918-5.17922-9.29647-12.32802-10.4717-14.40372-1.04965-1.85389-2.8979-7.24236-3.31364-9.66075-.21186-1.23234-.0589-1.06401 1.55233 1.70876 4.14382 7.13094 10.04226 14.41544 14.43629 17.82862 1.76734 1.37282 3.90374 2.38152 4.26945 2.0158.075-.075-1.95767-2.69324-4.51701-5.81833-5.22782-6.38345-7.01166-9.00949-9.6439-14.19696l-1.82082-3.58839.01-3.24664.01-3.24664 1.46587 2.73401c5.2013 9.701 5.45653 10.09398 9.65497 14.86618 5.48089 6.22994 10.38933 10.67512 10.38933 9.40882 0-.11346-1.3939-1.93082-3.09756-4.0386-1.70366-2.10779-4.44288-5.83158-6.08717-8.2751-2.79098-4.1476-3.06498-4.71523-4.12421-8.54379-.95953-3.46817-2.4905-12.05284-2.21428-12.41618.19452-.25586 1.52202.69029 1.86335 1.32808.20212.37766.58721 1.93638.85576 3.46384.83159 4.72993 2.77988 7.88173 9.35918 15.14066 4.03778 4.45486 6.41722 6.53657 7.1705 6.27324.18817-.0658-1.36382-2.88777-3.44885-6.2711-2.08504-3.38334-4.96086-8.53525-6.39071-11.44868l-2.59973-5.29715.0927-5.4014c.10353-6.03405-.15976-7.12886-2.30097-9.567594-1.27463-1.45173-1.18567-1.52717.67902-.57587 1.95181.99574 3.16788 3.359984 4.44553 8.642804 1.7589 7.27269 1.89055 7.52345 7.93037 15.10409 2.94086 3.69113 4.62631 5.29716 5.55907 5.29716.0777 0-1.24246-2.80663-2.9338-6.23696-3.72307-7.55103-3.9035-8.15773-4.56671-15.35615-.56316-6.11249-.94987-7.512634-3.18796-11.542464-1.419-2.55502-.80313-2.27017 1.46515.67765 2.78342 3.6173 5.59727 9.838414 8.68874 19.209854 1.12659 3.41514 2.03096 4.97985 2.65527 4.594.23139-.14302.013-1.43696-.6293-3.72821-.54102-1.93004-1.54928-5.96978-2.24057-8.97719-1.54984-6.742464-1.73797-11.935714-.6252-17.258454l.67873-3.24664.22796 4.2719c.32108 6.01731 2.5313 14.855694 4.06121 16.240254.91291.82618.93352.70623 1.14629-6.671224.33228-11.52109 2.58499-22.375588 5.85866-28.229478.67246-1.20251 1.26895-2.18638 1.32554-2.18638.0566 0-.27261 1.26875-.73151 2.81944-.8839 2.98685-.90416 5.26995-.11753 13.242868.26052 2.64072.055 10.32686-.48887 18.283704l-.21024 3.07577 1.02989-1.19613c1.42027-1.64953 3.40545-5.04912 3.80174-6.510504.18095-.66735.45398-2.5128.60664-4.10102l.27763-2.88767.41109 1.81101c.65397 2.88124.52219 7.278854-.29045 9.691154-.854 2.53505-3.06219 6.92575-5.55908 11.05343-2.84731 4.70702-.8312 4.25687 4.01704-.8969 1.42191-1.51151 2.58529-2.67784 2.58529-2.59184 0 .086-.82313 2.13646-1.82924 4.55657-2.08841 5.02369-3.56644 8.02854-6.43135 13.07503-1.10802 1.9517-1.9642 3.5989-1.90269 3.66044.39424.39421 2.43486-1.7186 5.90675-6.11569 2.19665-2.78203 4.06881-4.98334 4.16037-4.8918.23867.2387-1.21359 4.51806-2.21689 6.5325-1.83026 3.67476-6.18161 9.65244-10.91072 14.98858-.80926.91315-1.4714 1.79744-1.4714 1.96507 0 .55137 1.51559.31581 2.72955-.42423 2.64749-1.61393 9.56242-7.55234 10.68181-9.17335l.59581-.86279.003.78256c.006 2.11461-3.7449 6.51531-9.22494 10.82278-1.40971 1.10807-3.8703 3.17055-5.46797 4.58328-1.59768 1.41273-3.26097 2.88282-3.69621 3.26685l-.79136.69825.66957-1.53309c.36826-.84319 1.31256-2.91716 2.09846-4.60884 5.55467-11.95688 6.40993-15.42942 6.74283-27.37773.30019-10.7727-.27241-11.74763-2.27669-3.87639-2.9876 11.7329-6.84922 20.74646-11.90161 27.7799-2.25773 3.14302-11.09915 12.65219-17.01518 18.30028-4.32036 4.12469-10.96145 9.62579-11.57068 9.5845-.20024-.0136-.79572-.54448-1.32328-1.1798zm208.34174-2.38482c-.18929-.37543-.69163-1.63437-1.11635-2.79765l-.77222-2.11506-1.49651.72707c-.8231.39988-1.57902.64455-1.67987.54371-.40719-.40717-.2017-3.61482.30775-4.80454.29927-.69883.54409-1.35242.54409-1.45244 0-.34848-1.39723-.17838-2.57408.31333l-1.18515.4952v-1.09326c0-.60129.31851-1.6136.70622-2.24957.8987-1.47416.48218-1.92519-1.14865-1.24379-1.06061.44317-3.31807.73017-3.31807.42186 0-.0542.30758-.70191.6835-1.43926.37592-.73737.6835-1.92448.6835-2.63804v-1.29739l-1.96506 1.32426c-2.25232 1.51785-5.14222 2.2371-4.69791 1.16925.44113-1.06033.92645-3.55418.72991-3.75073-.10393-.10394-1.19684.2145-2.42867.70764-1.6124.64545-2.86102.89661-4.45753.89661-1.21977 0-2.21777-.0596-2.21777-.13251 0-.0729.4794-1.15698 1.06533-2.40911.58596-1.25214 1.00887-2.3331.93981-2.40214-.069-.069-1.12514.47634-2.34689 1.21195-1.22175.73562-2.65474 1.33795-3.18445 1.33852l-.96308.001.79221-1.06018c1.89598-2.53735 1.88788-2.52141 1.13395-2.2305-3.08824 1.19165-4.28258 1.25348-6.94556.35954-3.8378-1.28831-3.84234-1.2946-1.65686-2.29515 2.20387-1.00898 2.76143-2.10157 1.84404-3.61355-.94699-1.56071-2.51298-2.16896-5.08057-1.97333-2.16973.16531-5.75549-.46871-8.15333-1.44162-.83076-.33709-.82276-.34727.28898-.36834.62885-.0119 1.62847-.35721 2.22137-.76732 1.17076-.80983 4.09428-3.36643 4.25005-3.71667.053-.11908-1.09992.006-2.56195.27881-2.13733.39824-3.01009.41656-4.4536.0935-.98745-.22098-1.79534-.51577-1.79534-.65508 0-.13932.46461-.69844 1.03249-1.24249l1.03246-.98918-1.63052-.63777c-.89682-.35077-1.9806-.96461-2.4084-1.36411l-.77789-.72633 1.43315-.53011c1.82603-.67542 1.89671-.95578.66836-2.65149-.93683-1.29325-1.79404-1.77876-4.81763-2.72861-1.23477-.38791 2.23784-1.59262 5.03068-1.74526l2.80931-.15353-1.66787-1.49957c-1.1057-.99413-1.84415-2.01697-2.19088-3.03457-.50326-1.47701-.49882-1.52204.11763-1.19211.35237.18858 1.62942.34287 2.83787.34287 3.98127 0 5.61999.49598 7.20406 2.18039 1.59419 1.6952 4.0748 3.05609 6.92273 3.79788 1.0654.27751 1.99154.55902 2.05811.62558.0665.0666-.64375.76589-1.57846 1.55404-2.24926 1.89662-3.12936 3.86178-3.34644 7.47216-.22429 3.72994.62612 5.55552 4.12456 8.85406 3.79584 3.57894 7.28321 5.30727 14.68715 7.27889 3.19856.85176 6.36982 2.4133 9.7586 4.80517 2.21805 1.56556 2.63286 2.03716 3.55965 4.04685 1.44737 3.13871 2.16121 4.07982 3.95953 5.2203 1.9358 1.22765 4.49891 1.34496 6.54786.29966 1.98618-1.01328 5.2943-1.69654 8.24181-1.70225 4.62912-.009 6.37166-.82653 5.97619-2.80387l-.20012-1.00053 1.0194.72587c.56067.39924 1.39102 1.36944 1.84523 2.15599.7782 1.3476 1.67997 3.99623 1.4417 4.23449-.0598.0598-.83738-.21349-1.72788-.6074-1.87459-.82923-2.05674-.76359-1.55362.55975.2032.53453.27005 1.56041.14852 2.27973l-.22094 1.30786-1.42054-1.28392-1.42055-1.28391-.24144 2.18084c-.13281 1.19945-.38129 2.32066-.5522 2.49156-.37353.37355-2.56117-2.07022-3.52196-3.93434-1.27728-2.47815-3.11801-2.46913-6.99118.0342-2.51229 1.62379-4.73503 4.10475-5.36159 5.98452-.42623 1.2786-.51101 1.35554-.81954.74358zm-9.16846-3.90166c-2.08726-.52639-4.55096-2.0793-5.95011-3.75041-1.06065-1.26688-1.91509-1.88975-3.30631-2.41027-2.28637-.85546-3.08808-.87217-6.00323-.12512-2.18927.56102-2.327.55829-3.72851-.0737l-1.4553-.65624 1.38316-.35061c.81716-.20714 2.02517-.94501 2.95196-1.80307 2.2758-2.10705 4.1602-1.97517 8.4025.58809 2.37559 1.43537 3.85834 1.71326 4.77409.89472.29674-.26524 1.28606-.59268 2.19846-.72764 1.60099-.23683 1.64579-.22076 1.28156.45978-.40405.755-.52318 4.24968-.15734 4.61552.12105.12103.74152-.2378 1.37888-.79742 1.30518-1.14595 2.02169-1.32896 1.64207-.4194-.13728.32893-.34595 1.52079-.46375 2.64857-.23533 2.25355-.61105 2.49661-2.94813 1.90721zm9.22721-6.81674c-1.81164-.84713-2.65713-1.82071-4.05912-4.67409-2.18052-4.43791-7.30203-7.98955-14.30736-9.92176-7.30522-2.01493-10.79174-3.77797-14.38204-7.27269-3.86282-3.75997-4.67973-6.3711-3.31817-10.60563.6389-1.98701 1.07879-2.66905 2.78726-4.32164l2.02862-1.96228 3.42015.38891c5.18258.58933 5.45113.49361 2.91429-1.03871-.90628-.54743-2.06306-1.72947-2.90318-2.96664-.76815-1.13114-1.55116-2.15213-1.74001-2.26886-.43177-.26683-.44715-3.06138-.0249-4.5334.17511-.61069.79026-1.68278 1.36699-2.38243.87679-1.06371 1.04855-1.56723 1.04855-3.07385 0-1.86228-.76664-3.16878-1.85945-3.16878-.92316 0-.94046-.72113-.0496-2.067324 1.16899-1.76649 3.02031-2.93796 5.27417-3.33736 2.12821-.37714 2.85452-.23984 4.52082.85466 1.17227.77 1.28149.78152 2.69151.28404 1.7288-.60996 5.21235-.683 6.27611-.13161.41057.21282 1.43619.9433 2.27919 1.62332l1.5327 1.23639-1.50882.17088-1.50878.17087 1.44272.996154c2.09461 1.44621 1.79295 2.03439-1.40509 2.73974-1.29745.28616-1.17757.66673.43969 1.39603 2.64988 1.19494-.16889 1.65769-3.08825.50698-.98556-.38848-2.53987-.6835-3.601-.6835h-1.86697l1.36699 1.36701c1.69467 1.69468 1.76934 2.39179.25632 2.39353-.97177.001-3.33205 1.07468-3.33205 1.51554 0 .0879.52636.40965 1.1697.71493 2.21542 1.0513 1.84739 1.52752-1.18043 1.52752-1.49778 0-2.72326.0823-2.72326.18289 0 .4925 1.16126 1.86762 1.57717 1.86762.26034 0 .47332.15378.47332.34175 0 .57751-1.3958.3797-2.60822-.36962-1.32954-.82171-1.43535-.50224-.46417 1.40144.83216 1.63117 2.17681 2.38569 4.25153 2.38569 1.7629 0 1.81075.0887.87511 1.62333-.77806 1.27611-.71012 1.30647 1.24919.55818 1.44611-.55227 1.44745-.55205 3.24241.55242 3.4832 2.14326 6.25195 2.59579 8.58971 1.40393l1.26837-.64666v.74149c0 .90762.81695 2.12506 1.76724 2.63366.57431.30737.89908.23635 1.73069-.37851l1.0237-.75686.82874.89377c.99251 1.07037 1.84285 1.13614 2.68321.20751.53654-.59288.69491-.62163 1.16365-.2113.29842.26124.9191.5901 1.37926.73081l.83667.25582-.75123.60832c-.41317.33458-.75123.699-.75123.80985 0 .35979 5.49214.21265 6.19979-.16609.61908-.33131.65059-.29977.3193.31928-.20218.37781-.36762 1.01006-.36762 1.40503 0 .52602-.43422.91411-1.6233 1.45085-1.40859.63582-2.21091.72826-6.06604.69889-5.65337-.0431-10.18509-.78222-15.2836-2.49278-6.17608-2.07208-8.25333-1.78067-9.98483 1.40074-.91821 1.68703-1.12893 3.64993-.51505 4.79702.42886.80133 5.65484 4.99808 10.38317 8.33828 3.88055 2.74127 4.73103 3.77613 6.51366 7.9257 1.6623 3.86948 2.6724 5.44101 4.02883 6.26809 1.43651.87586 3.37012.87751 4.16107.004 1.14642-1.26678 4.81359-2.23319 8.1618-2.15089 2.96443.0729 3.04252.0541 4.07863-.98206 1.00591-1.00592 1.07853-1.02604 1.52071-.42147.68917.94225.91487 2.171.47886 2.60702-.2113.21132-2.1916.49129-4.40062.62216-4.26899.25291-6.68823.72586-8.63001 1.68709-1.97325.97681-3.74611 1.10336-5.2971.37812zm.98085-2.24688c-.58832-.25602-1.15545-.6043-1.2603-.77395-.53784-.87026 1.67631-6.50727 2.3079-5.87567.43508.43509.9205 4.28972.71377 5.66816-.2451 1.63451-.25197 1.63834-1.76137.98146zm2.19857-3.21585c-.0862-1.72846-.36512-3.36521-.67157-3.94132l-.5241-.98528-.95905 1.25741c-.52749.69159-1.21567 2.19475-1.52926 3.34039l-.57017 2.08296-1.17138-2.51441c-.64426-1.38293-1.65491-3.47143-2.2459-4.64113-.59099-1.16969-.97545-2.22384-.85437-2.34256.12108-.11871.46252-.93072.75875-1.80447l.53863-1.58864 1.8626 1.87754c2.5505 2.57099 6.2108 3.62767 9.03774 2.60907 1.62019-.58378 1.72207-.53349 4.51179 2.22735 1.65448 1.63735 1.79418 1.89979 1.79418 3.37056v1.59497l-1.8224.0164c-2.19317.0197-4.29212.54507-6.42484 1.60812l-1.58312.78912-.14753-2.95606zm10.66139-1.58224c0-1.4197.20683-2.66206.55534-3.33605l.55534-1.07392.62646 1.17633c1.14681 2.15343.60165 5.15987-.97675 5.38656-.72044.10346-.76039-.01-.76039-2.15292zm-58.78073-.50553c-.84583-.15623-2.70049-.74833-4.12152-1.31579-4.29024-1.71323-6.70182-1.91992-10.6591-.91353-1.27294.32373-1.20531-.23031.19962-1.63525 1.61302-1.61301 3.58408-2.23607 8.05005-2.54458l3.89241-.2689-2.86716-1.46392c-3.15981-1.61335-5.91953-2.11686-11.63021-2.12187-3.13056-.003-9.30715-1.07648-11.11271-1.93181-.59378-.28129-1.34457-.80423-1.66845-1.16209-.57454-.63489-.53586-.64573 1.59399-.44684 2.39935.22407 5.83932-.33823 6.43102-1.0512.29776-.35878-.0899-.56732-1.89968-1.02192-3.61829-.9089-6.94569-2.33325-8.11064-3.47191-.62909-.61488-1.63411-2.38031-2.41869-4.2487-1.63086-3.88381-4.16934-7.73942-5.82483-8.84714-.67362-.45075-2.56612-1.3246-4.20553-1.9419-3.53733-1.33192-3.25898-1.69078 1.29113-1.66458 3.50829.0202 6.07448.9621 10.32125 3.78832 2.60617 1.73441 3.36567 1.98961 5.74093 1.92908 1.23501-.0315 5.80972-.89637 5.80972-1.09839 0-.12263-1.34563-.65693-2.9903-1.18732-10.65182-3.43515-15.06205-7.40472-23.43646-21.094734-4.21833-6.89586-8.06642-11.40017-10.8175-12.662268-2.17786-.99912-1.68013-1.29116 2.21505-1.29972 3.95884-.009 8.86263 1.38373 8.5328 2.422878-.35309 1.11253.86928 2.96717 3.227 4.89609 4.59925 3.76282 7.63025 5.13228 13.61949 6.15352 6.76539 1.15358 10.34131.97139 14.19869-.72342 1.0762-.47284 1.49556-.5022 2.41651-.16918.61289.22163 2.51557.40295 4.22821.40295 2.86857 0 3.13192.0568 3.34292.72162.38559 1.21488-.53501 1.75705-2.97199 1.75033-1.1915-.003-2.78149-.11065-3.53333-.23859-1.7545-.29854-2.90486.63277-2.90486 2.351754 0 1.37522.19455 1.53985 3.24661 2.74723 3.61549 1.43027 7.19934 1.57338 9.98585.39874 3.99316-1.68329 4.64006-1.4986 14.21838 4.05935l2.94477 1.70875-.20843 1.36701c-.11466.75185-.2315 1.39865-.25966 1.43731-.028.0387-.66036-.13674-1.40486-.3898-.74453-.25305-2.81464-.57134-4.60027-.7073-3.65514-.27832-4.09699-.43986-5.88922-2.15292l-1.27561-1.21927.66299 2.31832.66296 2.31833-.90221-.22645c-.49626-.12455-2.15962-.22179-3.69639-.21609-2.52651.009-2.94891-.0878-4.40992-1.01432l-1.61579-1.02471.24299 1.12195c.39998 1.84703 1.53106 4.49096 2.25191 5.26391.67472.72348.67458.72471-.11107.93515-.43268.11589-1.17117.21484-1.64107.21989-.46991.005-2.00777.65273-3.41749 1.43928l-2.56311 1.43009 1.53787.29778c3.02608.58596 4.08495.96465 5.11068 1.82777 1.37253 1.1549 1.31292 1.69953-.24077 2.20039-.70485.22722-1.39966.48062-1.54405.56312-.52578.30044 1.21492 2.18925 2.72479 2.95659l1.54959.78752-1.30274 1.07382-1.30271 1.07381 1.34727.57436c.74102.31589 2.54145.64786 4.00099.73772 2.33462.14374 2.60173.22639 2.22136.68734-.95067 1.15211-3.25829 1.83893-5.31511 1.58194-1.81605-.2269-1.91468-.20366-1.46015.34404 1.36296 1.64228 6.85489 3.27142 11.02815 3.27142 3.09488 0 4.58801.57966 4.9221 1.91087.29804 1.18753-.10587 1.49892-3.28403 2.53159l-2.73272.88793 3.50179 1.51318c2.95489 1.27683 3.85455 1.51443 5.76014 1.52125l2.2583.008-.54956.7509c-.64133.87626-3.64157 2.30957-5.84667 2.7931-2.32355.50952-6.81299.71973-8.54371.40004zm69.16045-4.06752c-2.16617-1.45485-6.89279-3.19075-9.20017-3.37888-1.76466-.14388-2.60949.0187-5.77422 1.1115-3.06887 1.05966-4.01466 1.24831-5.49323 1.09571-2.0481-.21139-4.25613-1.22947-5.17305-2.38521-.3467-.43701-1.13016-1.16226-1.74103-1.61169-.8894-.65434-1.11171-1.05964-1.11591-2.03442-.009-2.04318-.46475-2.23087-1.29048-.53124-.70178 1.44451-.82792 1.53532-2.13282 1.53532h-1.38692l.22518-1.20043c.12389-.66023.11674-2.06863-.0157-3.12977l-.24103-1.92935-1.42509 2.67543c-.7838 1.4715-1.5986 2.73329-1.81069 2.80399-.45746.15248-6.9718-4.96423-7.76866-6.1019-.74911-1.06954-.7013-1.57035.35163-3.68332 1.0316-2.0702 2.47531-2.92932 4.336-2.58025l1.10299.20692-.18574 1.94113c-.15314 1.60075-.4374 2.27074-1.62115 3.82077-1.57235 2.05887-1.50407 2.27268.54922 1.71979 1.8329-.49356 3.29124-1.77568 4.54338-3.99435.56692-1.00455 1.08549-1.82645 1.15237-1.82645.0668 0 1.00409.22986 2.08272.51081 2.4203.63042 3.47203 1.60425 5.12052 4.74142 1.53575 2.92257 3.73384 5.35655 5.59558 6.19608 1.32903.59931 1.46668.5983 4.36037-.0321 4.54546-.99032 9.29023-.89236 11.70259.24162 2.63318 1.23777 5.33001 3.47779 6.17048 5.12525.39167.76781.65943 1.44875.59498 1.51321-.0645.0645-.74484-.30434-1.51196-.81954zm-30.83955-2.33443-.8001-.6479 1.22797-2.20635 1.22797-2.20636-.0116 1.87963c-.006 1.0338-.19886 2.31821-.42787 2.85425-.41567.97301-.41768.97355-1.21645.32673zm-2.09598-1.81429c-.9977-.75257-.92073-.86516.76993-1.12605 1.13296-.17483 1.24362-.13077.95126.37883-.78948 1.37589-.85185 1.40298-1.72119.74722zm-2.28305-1.58819-.73636-.63288 1.1641-2.05051 1.16409-2.0505-.0113 1.70875c-.006.93982-.19873 2.14734-.42774 2.68339-.41064.96128-.42643.96595-1.15275.34175zm92.67733-3.11261c-1.53223-2.42632-5.3877-6.3314-8.04059-8.14406-3.02413-2.06633-4.57638-2.25985-8.16826-1.01841-3.82926 1.32348-4.14633 1.2567-6.98244-1.4705-1.3427-1.29114-2.82572-2.55251-3.29562-2.80306-.56898-.30336-2.85216-.5213-6.83497-.65243-6.34193-.2088-6.66908-.28875-9.73983-2.37984l-1.02524-.69817 2.87899-.002 2.87899-.002-.80304-.85481-.80304-.8548 2.1959.90343c1.7692.72788 3.02605.95348 6.46776 1.16093 2.34952.14162 4.69443.42338 5.21088.62611.51645.20274 1.91311 1.27482 3.10366 2.3824 3.06176 2.84837 3.90236 3.06115 8.2899 2.09826l3.52517-.77364 1.81096.88641c4.01397 1.96472 11.17377 10.77541 10.46758 12.88122-.0621.18521-.57366-.39284-1.13676-1.28454zm-97.71125-3.56881c.1447-.2446.64673-.95564 1.11564-1.58008.58484-.77889.90078-1.71772 1.00631-2.99032.0846-1.02024.23229-1.85499.32819-1.85499.72546 0 2.81611.86552 2.81354 1.16479-.004.52471-1.88266 3.74117-2.46838 4.22728-.85717.7114-3.09402 1.53828-2.7953 1.03332zm36.50417-3.6191c-.58186-.69762-1.31922-1.77381-1.63851-2.39153l-.58057-1.12314-1.05357.75023c-.5795.41263-1.35678 1.26406-1.7273 1.89207-.80861 1.3705-1.05638 1.41315-1.57659.27139-.58483-1.28361-.48535-2.49362.31092-3.78205 1.01787-1.64699.58152-1.93217-1.48459-.97024-1.7843.83075-4.00741 1.11997-4.00741.52136 0-.17428.51034-.75098 1.1341-1.28157.62376-.53058 1.49371-1.50296 1.93323-2.16082.8932-1.33695 3.10725-3.75927 3.43608-3.75927.11725 0 .14545.46166.0626 1.02589-.38587 2.62915 3.43641 4.92788 6.69697 4.02759 1.46682-.40501 3.14094-2.09267 3.14094-3.16631 0-.63638.23833-.81267 1.33583-.98817 2.06925-.33089 3.22839-1.90667 3.01743-4.10205-.1016-1.05764-.38293-1.85706-.74727-2.12346-.46255-.33823-.50746-.57082-.2155-1.11629.65748-1.22855.4266-2.3333-.68272-3.26674-.5783-.48662-1.37109-.88476-1.76171-.88476-.69146 0-.69368-.0183-.0841-.69191 1.05877-1.16996 4.64388-2.69193 7.28105-3.09101 1.37732-.20844 2.55984-.32334 2.62784-.25534.068.068-1.00655 1.11976-2.38786 2.33726-1.38131 1.21749-2.38076 2.26183-2.22099 2.32075.15973.0589.87631-.0556 1.59238-.2544 1.41015-.39159 3.76917-.41775 5.4029-.0599l1.02525.22455-1.11619.66633c-1.35858.81103-3.04785 3.19854-2.39627 3.38674 1.96318.56704 3.69112 1.352 3.45604 1.56998-.15693.14552-1.20805.52832-2.33582.85067l-2.05049.5861 1.87962.96336c1.03378.52985 2.41787 1.43029 3.07573 2.00098l1.19612 1.03763-2.28999.0139c-5.03361.0305-7.28648 1.1712-8.96471 4.53898-1.00474 2.01627-1.1279 4.01908-.36017 5.85659.39988.95704.41875 1.23786.0832 1.23786-1.14117 0-2.85771-.77065-4.24066-1.90387-1.72443-1.41306-1.92264-1.33108-3.1257 1.29265l-.58162 1.2684-1.05795-1.2684zm-18.56938-7.39525c-.81234-.86467-1.42352-.84506-2.50088.0802-1.41286 1.21346-2.75049-1.86441-1.79948-4.14056 1.10706-2.64959.4684-4.37078-2.68723-7.24215-1.72286-1.56765-2.42423-3.58839-1.24544-3.58839.38919 0 1.06968.59402 1.66387 1.45244 2.16208 3.12353 3.39801 3.73608 7.5712 3.75241 2.14639.008 3.44028-.18243 4.95535-.73087 4.85717-1.75817 8.65154-2.13472 10.74567-1.06636l1.32038.67361.93574-1.22685c1.80368-2.36473 4.89585-3.04712 6.60258-1.45705.94175.8774.91951 1.1779-.16773 2.26516-.85154.85153-.86565.92061-.27644 1.35148.34154.24973.72068.45406.84254.45406.28345 0 1.01479 1.59361 1.01479 2.21124 0 .25868-.39814.9435-.88475 1.5218-.75916.90223-1.11502 1.05148-2.50717 1.05148h-1.62242l.0294 1.43068c.026 1.25881-.11 1.52569-1.13173 2.22139-1.84578 1.25683-3.90003 1.01478-5.75918-.67859-.89012-.81073-.96486-1.87215-.28977-4.1153.26356-.87571.3789-1.59064.25631-1.58875-.35606.005-5.22318 4.825-6.65449 6.58941-1.07917 1.33032-1.5013 1.60918-2.43581 1.60918-.62174 0-1.32188-.23068-1.55588-.51262-.23399-.28195-.77225-.51263-1.19612-.51263-.42387 0-.96212.23068-1.19612.51263-.59956.72243-1.12845.63971-2.02728-.31708zm-10.27566-1.46285c-1.35609-.20871-2.77732-.80522-4.55386-1.91129l-1.64901-1.02666.96551-.78997c1.08802-.89021 1.81988-1.03559 1.81988-.36151 0 1.01323 1.71653 2.11009 3.30218 2.11009 3.03708 0 4.59402-3.30002 2.64804-5.61268-.48662-.57831-1.10177-1.05148-1.367-1.05148-.60855 0-.59642-.33291.043-1.17836.4871-.6441.54878-.62188 1.89736.6835 2.13408 2.06572 2.81641 3.17502 2.76669 4.49792-.10758 2.86132-2.93196 5.09305-5.87278 4.64044zm-22.55539-3.22713c-5.8168-1.0044-9.23592-2.75393-10.59735-5.42255-.94996-1.86206-.87535-2.00872.77208-1.51797.79884.23797 2.95913.57734 4.80064.75415 2.85005.27364 3.55842.46924 4.76114 1.31468 1.27636.8972 5.0641 5.64669 4.44895 5.57858-.14046-.0155-2.0239-.33366-4.18546-.70689zm14.29069-.88816c-.10195-.88617-.20803-.94079-1.85806-.95695-1.05484-.0103-2.10687-.25103-2.64855-.60595-1.0779-.70628-1.16546-1.04555-.18994-.73593.98294.31198 2.7088-.46349 2.7088-1.21711 0-.36454-.38142-.74239-.93981-.93102-.82371-.27824-.65212-.34873 1.38907-.57066 2.7572-.29979 3.15031-.80606 1.75597-2.26143-1.14154-1.19154-.94804-1.49191.97197-1.50858 1.22455-.0106 1.4525-.12579 1.54552-.78082.06-.42259-.23358-1.24966-.65246-1.83794l-.76162-1.06959 1.16512.1723c1.86499.27579 4.87234 1.55266 5.52672 2.34655 1.58879 1.92752 1.16704 3.62501-1.56575 6.30214-1.92801 1.88874-5.52095 4.59481-6.10066 4.59481-.13099 0-.28683-.42292-.34632-.93982zm6.71132.10097c-1.07784-1.07782-1.05641-1.55886.11965-2.6856 1.14291-1.09498 1.87886-1.15668 2.80073-.23482.95375.95378.86517 2.19976-.21698 3.05097-1.16663.91768-1.67997.89289-2.7034-.13055zm8.43114-5.55467c-1.41542-.69731-3.60182-3.5569-3.00821-3.93444.79426-.50515 1.59843-.28205 1.59843.44346 0 1.111 1.81147 2.70772 3.07191 2.70772 2.2366 0 3.77908-1.89954 3.10728-3.82662-.35197-1.00969-.34254-1.02339.37541-.54669 1.82893 1.21437 2.55296 4.28136 1.22957 5.20831-1.04089.72907-4.85224.69813-6.37439-.0517zm.14746-2.90981c-.2926-.41775-.532-.95206-.532-1.18736 0-.52338 1.75478-1.47061 2.72435-1.47061.99705 0 1.61118 1.43479 1.09708 2.56313-.52687 1.15635-2.50597 1.21341-3.28943.0948zm-33.16897-3.04862c-7.38406-4.4078-9.27516-4.9983-12.30294-3.84168-3.72749 1.42391-4.36382 1.53305-6.77134 1.16136-2.78997-.43074-6.72773-2.12124-6.72773-2.88825 0-.73597 1.31956-1.992394 1.87046-1.780994 2.19119.840854 3.2257.959884 5.05026.5811 1.05173-.21834 2.059-.58076 2.23841-.80539.72475-.90745.76241-1.85719.10581-2.6676-.61074-.75376-.90707-.81737-3.8526-.82697-2.19877-.007-3.42924-.16505-3.95721-.50773-.69323-.44991-1.03522-.40006-3.58836.52304-2.57709.93174-3.17819 1.01717-6.9231.9838-7.09313-.0632-12.37987-1.49629-16.93719-4.59113-4.67611-3.1755-6.56215-5.85858-4.78629-6.80897 1.49337-.799248 2.65563-.383038 7.54092 2.70051 1.40971.8898 3.7647 2.11297 5.2333 2.71816 5.46032 2.25015 13.56286 1.92577 13.56286-.543 0-.26619-1.4623-1.15505-3.33204-2.02536-8.27196-3.850358-8.24506-3.835038-9.30616-5.299868-1.2428-1.71564-1.25394-1.84387-.21957-2.52164.747-.48945.95953-.47421 2.64855.18996 1.01.39717 2.30711 1.0801 2.88244 1.51763 1.57109 1.19479 7.06637 4.478848 9.78809 5.849498 1.54211.77659 3.76631 1.49353 6.20783 2.00098 5.03925 1.04735 8.60009 2.46603 13.31205 5.30362 4.52216 2.72328 9.07435 5.03259 12.12107 6.148924 1.21324.44453 2.30813 1.08509 2.51479 1.47123.5618 1.04977.099 2.89343-1.05689 4.20988-.57397.65372-1.04357 1.33701-1.04357 1.51844 0 .62311-.8612.26637-4.27185-1.76955zm26.55378.64379c-.35029-.42208-.30408-.54288.26455-.69158 1.10402-.28871 1.26047-1.26583.31858-1.98995-.81835-.62915-.81869-.63221-.0727-.63977 1.4903-.0151 2.37509-2.41087 1.2155-3.29114-.55418-.42067-.54198-.45479.16599-.46486.42021-.006 1.42605-.187934 2.2352-.404364 1.32674-.35484 1.63759-.31052 3.16606.451484 3.65483 1.82205 3.28028 4.65687-.86271 6.52903-2.01949.91259-5.84178 1.21048-6.43044.50115zm-26.93039-8.924964c-2.0484-1.01024-5.35745-2.83149-7.35343-4.04724-4.58394-2.79207-8.67371-4.43031-13.45836-5.39101-4.31362-.86614-7.82468-2.49932-13.96039-6.493738-5.3769-3.50044-7.03059-4.04999-8.68984-2.8878-1.07043.74977-.96452 2.15824.29287 3.89403.85369 1.1785 1.67645 1.740268 4.3573 2.975098 7.1206 3.27982 7.91848 3.67578 7.91848 3.92951 0 .73015-2.99512 1.05931-6.49322.71362-4.24609-.41962-6.529-1.30068-11.73202-4.52789-3.28061-2.034828-3.6197-2.356308-6.0389-5.725598-1.40971-1.96335-2.84977-4.11922-3.20013-4.79082-.87413-1.67553-1.91615-6.93994-1.92162-9.70795-.005-2.65708-.37869-3.83198-1.64952-5.18911l-.91807-.98039.85437.25042c1.86304.54609 3.15048 1.70159 4.87504 4.37547 4.03161 6.25092 4.5335 6.89676 6.11193 7.86486.87389.53599 2.25797 1.0553 3.07574 1.15403l1.48684.17951-1.76687-1.73177c-.97176-.95248-1.85019-2.00699-1.95207-2.34336-.29147-.96225-.89059-5.00146-.76107-5.13097.0641-.0642.79084.44682 1.61483 1.13553 3.83083 3.20183 7.22501 5.07798 11.7245 6.48077l3.04959.95075 5.22674-.63049c5.79725-.69932 7.38091-.50545 11.0046 1.34716 3.43174 1.75446 7.12122 6.04033 10.34022 12.011608 2.02424 3.75498 2.17888 3.76264 3.80373.18827 1.59278-3.503898 1.61226-4.947528.10474-7.764478-1.1494-2.14776-1.24642-2.53355-1.05757-4.20516.29205-2.58527.44082-2.66168 1.79588-.92237.90202 1.15778 1.8964 1.87686 3.985 2.88175 1.53065.73645 3.24439 1.82817 3.80827 2.42605 1.13184 1.20004 1.04831.18133.81398 9.928948-.0397 1.65109.18051 3.47911.6189 5.13728l.68053 2.57414-1.14213 1.48782c-.6282.81829-1.14215 1.69761-1.14215 1.95405 0 .704154-.28195.614434-4.30672-1.37053zm7.05342-3.946c-.59239-2.23693-1.06267-4.55897-.94675-4.67488.063-.0629 1.12005.99587 2.34911 2.35294l2.23469 2.46739-1.65659.53883-1.65655.53883-.32391-1.22311zm-14.7079-9.678848c-2.01669-3.66758-4.07166-6.40099-6.93513-9.22457-2.15989-2.12986-2.32605-2.39747-2.22759-3.58839.0933-1.12906.22532-1.30051 1.07617-1.39792 1.51193-.17311 4.51477 1.55954 7.3926 4.26552 3.28249 3.08651 4.59644 5.36441 4.37526 7.58508-.15549 1.56114-1.50916 5.186738-1.9292 5.167098-.11783-.005-.90628-1.26859-1.75211-2.806818z" style="fill:#020202"/></svg>